<svg height="2686" width="720" xmlns="http://www.w3.org/2000/svg">
<rect height="2686" fill="#555" width="720"></rect>
<text fill="#7f7" font-family="Courier New" font-size="12" xml:space="preserve">
<tspan x="10" y="26">21 megabytes installed</tspan>
<tspan x="10" y="42"></tspan>
<tspan x="10" y="58">node_modules</tspan>
<tspan x="10" y="74">├─┬ generator-zurb-ink@0.3.1 </tspan>
<tspan x="10" y="90">│ ├─┬ chalk@0.4.0 </tspan>
<tspan x="10" y="106">│ │ ├── ansi-styles@1.0.0 </tspan>
<tspan x="10" y="122">│ │ ├── has-color@0.1.7 </tspan>
<tspan x="10" y="138">│ │ └── strip-ansi@0.1.1 </tspan>
<tspan x="10" y="154">│ ├─┬ yeoman-generator@0.16.0 </tspan>
<tspan x="10" y="170">│ │ ├── async@0.2.10 </tspan>
<tspan x="10" y="186">│ │ ├─┬ cheerio@0.13.1 </tspan>
<tspan x="10" y="202">│ │ │ ├─┬ CSSselect@0.4.1 </tspan>
<tspan x="10" y="218">│ │ │ │ ├── CSSwhat@0.4.7 </tspan>
<tspan x="10" y="234">│ │ │ │ └── domutils@1.4.3 </tspan>
<tspan x="10" y="250">│ │ │ ├── entities@0.5.0 </tspan>
<tspan x="10" y="266">│ │ │ ├─┬ htmlparser2@3.4.0 </tspan>
<tspan x="10" y="282">│ │ │ │ ├── domelementtype@1.3.0 </tspan>
<tspan x="10" y="298">│ │ │ │ ├── domhandler@2.2.1 </tspan>
<tspan x="10" y="314">│ │ │ │ ├── domutils@1.3.0 </tspan>
<tspan x="10" y="330">│ │ │ │ └─┬ readable-stream@1.1.14 </tspan>
<tspan x="10" y="346">│ │ │ │   ├── core-util-is@1.0.2 </tspan>
<tspan x="10" y="362">│ │ │ │   ├── isarray@0.0.1 </tspan>
<tspan x="10" y="378">│ │ │ │   └── string_decoder@0.10.31 </tspan>
<tspan x="10" y="394">│ │ │ └── underscore@1.5.2 </tspan>
<tspan x="10" y="410">│ │ ├─┬ class-extend@0.1.2 </tspan>
<tspan x="10" y="426">│ │ │ └── object-assign@2.1.1 </tspan>
<tspan x="10" y="442">│ │ ├── dargs@0.1.0 </tspan>
<tspan x="10" y="458">│ │ ├── debug@0.7.4 </tspan>
<tspan x="10" y="474">│ │ ├── diff@1.0.8 </tspan>
<tspan x="10" y="490">│ │ ├─┬ download@0.1.19 </tspan>
<tspan x="10" y="506">│ │ │ ├─┬ decompress@0.2.5 </tspan>
<tspan x="10" y="522">│ │ │ │ ├── adm-zip@0.4.7 </tspan>
<tspan x="10" y="538">│ │ │ │ ├─┬ ext-name@1.0.1 </tspan>
<tspan x="10" y="554">│ │ │ │ │ └─┬ ext-list@0.2.0 </tspan>
<tspan x="10" y="570">│ │ │ │ │   └─┬ got@0.2.0 </tspan>
<tspan x="10" y="586">│ │ │ │ │     └── object-assign@0.3.1 </tspan>
<tspan x="10" y="602">│ │ │ │ ├─┬ stream-combiner@0.0.4 </tspan>
<tspan x="10" y="618">│ │ │ │ │ └── duplexer@0.1.1 </tspan>
<tspan x="10" y="634">│ │ │ │ ├─┬ tar@0.1.20 </tspan>
<tspan x="10" y="650">│ │ │ │ │ ├── block-stream@0.0.9 </tspan>
<tspan x="10" y="666">│ │ │ │ │ └─┬ fstream@0.1.31 </tspan>
<tspan x="10" y="682">│ │ │ │ │   ├─┬ graceful-fs@3.0.11 </tspan>
<tspan x="10" y="698">│ │ │ │ │   │ └── natives@1.1.0 </tspan>
<tspan x="10" y="714">│ │ │ │ │   └─┬ mkdirp@0.5.1 </tspan>
<tspan x="10" y="730">│ │ │ │ │     └── minimist@0.0.8 </tspan>
<tspan x="10" y="746">│ │ │ │ └─┬ tempfile@0.1.3 </tspan>
<tspan x="10" y="762">│ │ │ │   └── uuid@1.4.2 </tspan>
<tspan x="10" y="778">│ │ │ ├── each-async@0.1.3 </tspan>
<tspan x="10" y="794">│ │ │ ├── get-stdin@0.1.0 </tspan>
<tspan x="10" y="810">│ │ │ ├── get-urls@0.1.2 </tspan>
<tspan x="10" y="826">│ │ │ ├─┬ nopt@2.2.1 </tspan>
<tspan x="10" y="842">│ │ │ │ └── abbrev@1.1.0 </tspan>
<tspan x="10" y="858">│ │ │ ├─┬ request@2.81.0 </tspan>
<tspan x="10" y="874">│ │ │ │ ├── aws-sign2@0.6.0 </tspan>
<tspan x="10" y="890">│ │ │ │ ├── aws4@1.6.0 </tspan>
<tspan x="10" y="906">│ │ │ │ ├── caseless@0.12.0 </tspan>
<tspan x="10" y="922">│ │ │ │ ├─┬ combined-stream@1.0.5 </tspan>
<tspan x="10" y="938">│ │ │ │ │ └── delayed-stream@1.0.0 </tspan>
<tspan x="10" y="954">│ │ │ │ ├── extend@3.0.0 </tspan>
<tspan x="10" y="970">│ │ │ │ ├── forever-agent@0.6.1 </tspan>
<tspan x="10" y="986">│ │ │ │ ├─┬ form-data@2.1.4 </tspan>
<tspan x="10" y="1002">│ │ │ │ │ └── asynckit@0.4.0 </tspan>
<tspan x="10" y="1018">│ │ │ │ ├─┬ har-validator@4.2.1 </tspan>
<tspan x="10" y="1034">│ │ │ │ │ ├─┬ ajv@4.11.7 </tspan>
<tspan x="10" y="1050">│ │ │ │ │ │ ├── co@4.6.0 </tspan>
<tspan x="10" y="1066">│ │ │ │ │ │ └─┬ json-stable-stringify@1.0.1 </tspan>
<tspan x="10" y="1082">│ │ │ │ │ │   └── jsonify@0.0.0 </tspan>
<tspan x="10" y="1098">│ │ │ │ │ └── har-schema@1.0.5 </tspan>
<tspan x="10" y="1114">│ │ │ │ ├─┬ hawk@3.1.3 </tspan>
<tspan x="10" y="1130">│ │ │ │ │ ├── boom@2.10.1 </tspan>
<tspan x="10" y="1146">│ │ │ │ │ ├── cryptiles@2.0.5 </tspan>
<tspan x="10" y="1162">│ │ │ │ │ ├── hoek@2.16.3 </tspan>
<tspan x="10" y="1178">│ │ │ │ │ └── sntp@1.0.9 </tspan>
<tspan x="10" y="1194">│ │ │ │ ├─┬ http-signature@1.1.1 </tspan>
<tspan x="10" y="1210">│ │ │ │ │ ├── assert-plus@0.2.0 </tspan>
<tspan x="10" y="1226">│ │ │ │ │ ├─┬ jsprim@1.4.0 </tspan>
<tspan x="10" y="1242">│ │ │ │ │ │ ├── assert-plus@1.0.0 </tspan>
<tspan x="10" y="1258">│ │ │ │ │ │ ├── extsprintf@1.0.2 </tspan>
<tspan x="10" y="1274">│ │ │ │ │ │ ├── json-schema@0.2.3 </tspan>
<tspan x="10" y="1290">│ │ │ │ │ │ └── verror@1.3.6 </tspan>
<tspan x="10" y="1306">│ │ │ │ │ └─┬ sshpk@1.13.0 </tspan>
<tspan x="10" y="1322">│ │ │ │ │   ├── asn1@0.2.3 </tspan>
<tspan x="10" y="1338">│ │ │ │ │   ├── assert-plus@1.0.0 </tspan>
<tspan x="10" y="1354">│ │ │ │ │   ├── bcrypt-pbkdf@1.0.1 </tspan>
<tspan x="10" y="1370">│ │ │ │ │   ├─┬ dashdash@1.14.1 </tspan>
<tspan x="10" y="1386">│ │ │ │ │   │ └── assert-plus@1.0.0 </tspan>
<tspan x="10" y="1402">│ │ │ │ │   ├── ecc-jsbn@0.1.1 </tspan>
<tspan x="10" y="1418">│ │ │ │ │   ├─┬ getpass@0.1.6 </tspan>
<tspan x="10" y="1434">│ │ │ │ │   │ └── assert-plus@1.0.0 </tspan>
<tspan x="10" y="1450">│ │ │ │ │   ├── jodid25519@1.0.2 </tspan>
<tspan x="10" y="1466">│ │ │ │ │   ├── jsbn@0.1.1 </tspan>
<tspan x="10" y="1482">│ │ │ │ │   └── tweetnacl@0.14.5 </tspan>
<tspan x="10" y="1498">│ │ │ │ ├── is-typedarray@1.0.0 </tspan>
<tspan x="10" y="1514">│ │ │ │ ├── isstream@0.1.2 </tspan>
<tspan x="10" y="1530">│ │ │ │ ├─┬ mime-types@2.1.15 </tspan>
<tspan x="10" y="1546">│ │ │ │ │ └── mime-db@1.27.0 </tspan>
<tspan x="10" y="1562">│ │ │ │ ├── oauth-sign@0.8.2 </tspan>
<tspan x="10" y="1578">│ │ │ │ ├── performance-now@0.2.0 </tspan>
<tspan x="10" y="1594">│ │ │ │ ├── qs@6.4.0 </tspan>
<tspan x="10" y="1610">│ │ │ │ ├── safe-buffer@5.0.1 </tspan>
<tspan x="10" y="1626">│ │ │ │ ├── stringstream@0.0.5 </tspan>
<tspan x="10" y="1642">│ │ │ │ ├── tough-cookie@2.3.2 </tspan>
<tspan x="10" y="1658">│ │ │ │ ├── tunnel-agent@0.6.0 </tspan>
<tspan x="10" y="1674">│ │ │ │ └── uuid@3.0.1 </tspan>
<tspan x="10" y="1690">│ │ │ └─┬ through2@0.4.2 </tspan>
<tspan x="10" y="1706">│ │ │   ├── readable-stream@1.0.34 </tspan>
<tspan x="10" y="1722">│ │ │   └─┬ xtend@2.1.2 </tspan>
<tspan x="10" y="1738">│ │ │     └── object-keys@0.4.0 </tspan>
<tspan x="10" y="1754">│ │ ├─┬ file-utils@0.1.5 </tspan>
<tspan x="10" y="1770">│ │ │ ├── isbinaryfile@0.1.9 </tspan>
<tspan x="10" y="1786">│ │ │ ├── lodash@2.1.0 </tspan>
<tspan x="10" y="1802">│ │ │ └─┬ minimatch@0.2.14 </tspan>
<tspan x="10" y="1818">│ │ │   ├── lru-cache@2.7.3 </tspan>
<tspan x="10" y="1834">│ │ │   └── sigmund@1.0.1 </tspan>
<tspan x="10" y="1850">│ │ ├── findup-sync@0.1.3 </tspan>
<tspan x="10" y="1866">│ │ ├─┬ glob@3.2.11 </tspan>
<tspan x="10" y="1882">│ │ │ ├── inherits@2.0.3 </tspan>
<tspan x="10" y="1898">│ │ │ └── minimatch@0.3.0 </tspan>
<tspan x="10" y="1914">│ │ ├── iconv-lite@0.2.11 </tspan>
<tspan x="10" y="1930">│ │ ├─┬ inquirer@0.4.1 </tspan>
<tspan x="10" y="1946">│ │ │ ├─┬ cli-color@0.2.3 </tspan>
<tspan x="10" y="1962">│ │ │ │ ├── es5-ext@0.9.2 </tspan>
<tspan x="10" y="1978">│ │ │ │ └─┬ memoizee@0.2.6 </tspan>
<tspan x="10" y="1994">│ │ │ │   ├── event-emitter@0.2.2 </tspan>
<tspan x="10" y="2010">│ │ │ │   └── next-tick@0.1.0 </tspan>
<tspan x="10" y="2026">│ │ │ ├── mute-stream@0.0.4 </tspan>
<tspan x="10" y="2042">│ │ │ ├─┬ readline2@0.1.1 </tspan>
<tspan x="10" y="2058">│ │ │ │ └─┬ strip-ansi@2.0.1 </tspan>
<tspan x="10" y="2074">│ │ │ │   └── ansi-regex@1.1.1 </tspan>
<tspan x="10" y="2090">│ │ │ └── through@2.3.8 </tspan>
<tspan x="10" y="2106">│ │ ├── isbinaryfile@2.0.4 </tspan>
<tspan x="10" y="2122">│ │ ├── lodash@2.4.2 </tspan>
<tspan x="10" y="2138">│ │ ├── mime@1.2.11 </tspan>
<tspan x="10" y="2154">│ │ ├── mkdirp@0.3.5 </tspan>
<tspan x="10" y="2170">│ │ ├─┬ request@2.30.0 </tspan>
<tspan x="10" y="2186">│ │ │ ├── aws-sign2@0.5.0 </tspan>
<tspan x="10" y="2202">│ │ │ ├── forever-agent@0.5.2 </tspan>
<tspan x="10" y="2218">│ │ │ ├─┬ form-data@0.1.4 </tspan>
<tspan x="10" y="2234">│ │ │ │ ├── async@0.9.2 </tspan>
<tspan x="10" y="2250">│ │ │ │ └─┬ combined-stream@0.0.7 </tspan>
<tspan x="10" y="2266">│ │ │ │   └── delayed-stream@0.0.5 </tspan>
<tspan x="10" y="2282">│ │ │ ├─┬ hawk@1.0.0 </tspan>
<tspan x="10" y="2298">│ │ │ │ ├── boom@0.4.2 </tspan>
<tspan x="10" y="2314">│ │ │ │ ├── cryptiles@0.2.2 </tspan>
<tspan x="10" y="2330">│ │ │ │ ├── hoek@0.9.1 </tspan>
<tspan x="10" y="2346">│ │ │ │ └── sntp@0.2.4 </tspan>
<tspan x="10" y="2362">│ │ │ ├─┬ http-signature@0.10.1 </tspan>
<tspan x="10" y="2378">│ │ │ │ ├── asn1@0.1.11 </tspan>
<tspan x="10" y="2394">│ │ │ │ ├── assert-plus@0.1.5 </tspan>
<tspan x="10" y="2410">│ │ │ │ └── ctype@0.5.3 </tspan>
<tspan x="10" y="2426">│ │ │ ├── json-stringify-safe@5.0.1 </tspan>
<tspan x="10" y="2442">│ │ │ ├── node-uuid@1.4.8 </tspan>
<tspan x="10" y="2458">│ │ │ ├── oauth-sign@0.3.0 </tspan>
<tspan x="10" y="2474">│ │ │ ├── qs@0.6.6 </tspan>
<tspan x="10" y="2490">│ │ │ ├─┬ tough-cookie@0.9.15 </tspan>
<tspan x="10" y="2506">│ │ │ │ └── punycode@1.4.1 </tspan>
<tspan x="10" y="2522">│ │ │ └── tunnel-agent@0.3.0 </tspan>
<tspan x="10" y="2538">│ │ ├── rimraf@2.2.8 </tspan>
<tspan x="10" y="2554">│ │ ├── shelljs@0.2.6 </tspan>
<tspan x="10" y="2570">│ │ ├── text-table@0.2.0 </tspan>
<tspan x="10" y="2586">│ │ └── underscore.string@2.3.3 </tspan>
<tspan x="10" y="2602">│ └─┬ yosay@0.1.0 </tspan>
<tspan x="10" y="2618">│   ├── minimist@0.0.9 </tspan>
<tspan x="10" y="2634">│   ├── pad-component@0.0.1 </tspan>
<tspan x="10" y="2650">│   └── word-wrap@0.1.3 </tspan>
<tspan x="10" y="2666">└── UNMET PEER DEPENDENCY yo@&gt;=1.0.0</tspan>
</text>
</svg>
